<?xml version="1.0" standalone="no"?>
<!DOCTYPE svg PUBLIC "-//W3C//DTD SVG 20010904//EN"
 "http://www.w3.org/TR/2001/REC-SVG-20010904/DTD/svg10.dtd">
<svg version="1.0" xmlns="http://www.w3.org/2000/svg"
 width="700.000000pt" height="700.000000pt" viewBox="0 0 700.000000 700.000000"
 preserveAspectRatio="xMidYMid meet">
<metadata>
Created by potrace 1.14, written by Peter Selinger 2001-2017
</metadata>
<g transform="translate(0.000000,700.000000) scale(0.100000,-0.100000)"
fill="#000000" stroke="none">
<path d="M5435 6365 c-78 -16 -120 -32 -169 -66 -38 -26 -966 -951 -2945
-2936 l-839 -843 494 -494 493 -494 1780 1782 c979 979 1815 1817 1856 1861
87 92 165 195 165 219 0 27 13 19 85 -56 97 -101 105 -118 89 -196 -6 -31 -74
-101 -1005 -1041 -433 -437 -439 -443 -439 -513 0 -84 109 -151 193 -119 27
10 1411 1390 1464 1459 34 45 58 94 69 141 12 52 12 162 -1 210 -29 113 -43
129 -485 572 -234 234 -444 438 -467 452 -95 60 -226 84 -338 62z"/>
<path d="M1304 2274 c-8 -25 -26 -65 -86 -194 -28 -58 -81 -175 -120 -260 -39
-85 -87 -191 -108 -235 -21 -44 -49 -105 -63 -135 -27 -60 -65 -142 -122 -265
-145 -314 -139 -296 -126 -345 14 -51 33 -75 75 -97 55 -29 94 -16 431 142 39
18 93 43 120 55 74 33 305 140 429 199 59 28 110 51 111 51 3 0 120 54 255
117 41 19 90 42 109 50 l33 14 -449 447 c-247 246 -457 453 -466 461 -14 11
-18 11 -23 -5z"/>
<path d="M2029 817 c-93 -62 -87 -189 12 -240 32 -16 155 -17 2165 -17 l2131
0 34 23 c90 60 88 181 -4 237 -31 20 -67 20 -2168 20 l-2136 0 -34 -23z"/>
</g>
</svg>
