<!-- icon666.com - MILLIONS vector ICONS FREE --><svg viewBox="0 0 25 25" xmlns="http://www.w3.org/2000/svg"><g id="Layer_14" data-name="Layer 14"><path d="m8 20.1c-5.27 2.43-4.94 2.3-5.09 2.3a.5.5 0 0 1 -.46-.71l2.25-4.88zm15.61-14.67-2.83-2.83a1.7 1.7 0 0 0 -2.37.25l-13.12 13.15 3.53 3.53c14.34-14.36 13.36-13.27 13.6-13.87l.48.48a.5.5 0 0 1 0 .7l-4.9 4.95a.5.5 0 1 0 .71.71l4.95-4.95a1.51 1.51 0 0 0 -.05-2.12zm-1.11 16.57h-15a.5.5 0 0 0 0 1h15a.5.5 0 0 0 0-1z" fill="#000000" style="fill: rgb(255, 255, 255);"></path></g></svg>